# xmcd
#
# Track frame offsets: 
#        150
#        19646
#        35519
#        52586
#        73095
#        106864
#        128946
#        150085
#        168950
#        189478
#        203225
#        227658
#        245038
#        261436
#
# Disc length: 3774 seconds
#
# Revision: 1
# Processed by: cddbd v1.5.2PL0 Copyright (c) Steve Scherf et al.
# Submitted via: ExactAudioCopyFreeDBPlugin 1.0
#
DISCID=b20ebc0e
DTITLE=Test The Voice Of Elac - The Voice Of Elac
DYEAR=2015
DGENRE=Jazz/Blues
TTITLE0=Otis Taylor - Red Meat
TTITLE1=Meg Hutchinson - Ready
TTITLE2=The Pines - Horse and Buggy
TTITLE3=Emma-Lee - Not Coming By
TTITLE4=Alan Taylor - All Is One
TTITLE5=Carrie Newcomer - The Ten O'Clock Line
TTITLE6=Greg Brown - Mattie Price
TTITLE7=Jodi Shaw - Hell's Bell's
TTITLE8=Cliff Eberhardt - 500 Milles
TTITLE9=Sophie B. Hawkins - Sinnerman
TTITLE10=David Munyon - Rosas Cantina
TTITLE11=Gilkyson/Gorka/Kaplansky - ild Horse
TTITLE12=Eugene Ruffolo - Irreplaceable
TTITLE13=Lynne Hanson - Foolish Things
EXTD=
EXTT0=
EXTT1=
EXTT2=
EXTT3=
EXTT4=
EXTT5=
EXTT6=
EXTT7=
EXTT8=
EXTT9=
EXTT10=
EXTT11=
EXTT12=
EXTT13=
PLAYORDER=
